<svg xmlns="http://www.w3.org/2000/svg" x="0px" y="0px" width="76px" height="68px" viewBox="0 0 76 68">
    <path d="M56.84,19.49c0,11-18.84,30.89-18.84,30.89S19.16,30.51,19.16,19.49c0-11.4,9.7-18,18.84-18S56.84,8.09,56.84,19.49Z" style="fill:none;stroke:#fff;stroke-linecap:square;stroke-miterlimit:10;stroke-width:2px" />
    <circle cx="38" cy="20.34" r="5.65" style="fill:none;stroke:#fff;stroke-linecap:square;stroke-miterlimit:10;stroke-width:2px" />
    <path d="M53.32,30a9.4,9.4,0,0,1,2.39,1.28c1.26,1.23,1.21,3.66,1.1,5.27a4.72,4.72,0,0,0,2.25-2.4c.66-1.13,1-.91,2.19-1.55.82-.45,1.06-1.14,1.53-1.87.14-.21.08-.46.25-.66.55-.65,1.55-.67,2.35-1s2.28-.85,2.76-1.77c.57-1.1.07-2.35,1-3.39a2.09,2.09,0,0,1,2.29-.66c1.4.6.81,2.42,1.47,3.55s1.38,1.46.42,2.71c-.84,1.09-2,1.75-1.92,3.31,0,.52.53,1.25.43,1.73-.2.92-2.7,1.69-3.41,2.5a5.92,5.92,0,0,0-1.58,4.6c.19,1.39.67,2.54.42,4-.6,3.49-3.45,5-5.39,7.61-2.24,3,1.75,5.61,2.29,8.56.17,1,.19,4.61-1.52,4.61-1.34,0-3.25-2.73-3.84-3.8-.5-.92-.52-2.67-1.16-3.39-1-1.08-3.75-.64-5-.7-.53,0-2-.42-2.42-.07-.64.54.1.3-.29,1.12-.62,1.28-3.08.4-4.23.35a7.14,7.14,0,0,0-4.32,1c-1.35.77-3.44,1-3.74,2.79-.25,1.52.8,3.11-1.68,2.61a5.11,5.11,0,0,1-3.45-3c-.52-1-1.34-4.36-2.72-3.84-.89.33-.55,1.32-1.62,1.31a2.31,2.31,0,0,1-1.36-.72c-1.12-1-1.35-2.86-2.56-3.77s-3.21-.17-4.61-.6a36.73,36.73,0,0,1-5.86-2.35A23.67,23.67,0,0,1,5,46.14a15.44,15.44,0,0,1-2.67-6.4c-.47-3,.42-5.52,1.31-8.34a76,76,0,0,0,2.47-9.82,6.81,6.81,0,0,0,1.15.3A3,3,0,0,0,7.9,22c.17,0,.15-.33.27-.36s.3-.28.51-.34C9.47,21.11,20,24,20,24" style="fill:none;stroke:#fff;stroke-miterlimit:10;stroke-width:2px" />
</svg>
