<svg xmlns="http://www.w3.org/2000/svg" height="48" viewBox="0 0 86 26">
<style>
.s0{
	fill:#fff;
}

</style>  <title>
    pj-logo-footer
  </title>
  <path d="M32.06 18.13a2.81 2.81 0 0 1-1.52-0.41 3.08 3.08 0 0 1-1-1.07V20.9H28V10.83h1.33v1.29a3.13 3.13 0 0 1 1.06-1 2.84 2.84 0 0 1 1.47-0.38 3 3 0 0 1 1.35 3.44 3.44 0 0 1 1.07A3.73 3.73 0 0 1 35 13a4 4 0 0 1 0.25 1.41A4.46 4.46 0 0 1 35 15.86 3.62 3.62 0 0 1 34.35 17a3.21 3.21 0 0 1-1 0.79A2.79 2.79 0 0 1 32.06 18.13Zm-0.49-1.29a1.84 1.84 0 0 0 0.87-0.21 2.16 2.16 0 0 0 0.67-0.55 2.49 2.49 0 0 0 0.43-0.78 2.76 2.76 0 0 0 0.15-0.9 2.54 2.54 0 0 0-0.17-0.93 2.5 2.5 0 0 0-0.47-0.77 2.17 2.17 0 0 0-0.7-0.52 2.08 2.08 0 0 0-0.89-0.19 1.84 1.84 0 0 0-0.6 2.39 2.39 0 0 0-0.59 2.34 2.34 0 0 0-0.48 1.51 1.51 0 0 0-0.29v1.87a2.78 2.78 0 0 0 0.36 2.66 2.66 0 0 0 0.49 2.35 2.35 0 0 0 0.58A1.75 1.75 0 0 0 31.57 16.84ZM39.85 18.13a3.81 3.81 0 0 1-1.52-0.29 3.53 3.53 0 0 1-1.17-0.8 3.6 3.6 0 0 1-0.75-1.18 3.81 3.81 0 0 1-0.27-1.42A3.87 3.87 0 0 1 36.41 13a3.67 3.67 0 0 1 0.75-1.19A3.48 3.48 0 0 1 38.33 11a3.85 3.85 0 0 1 1.53-0.29 3.68 3.68 0 0 1 1.51 3.62 3.62 0 0 1 1.16A3.43 3.43 0 0 1 43.27 13a3.88 3.88 0 0 1 0.25 1.39v0.55H37.74a2.44 2.44 0 0 0 0.23 2.25 2.25 0 0 0 0.48 2.1 2.1 0 0 0 1.46 2.42 2.42 0 0 0 0.6-0.08 2.09 2.09 0 0 0 0.54-0.22 2 2 0 0 0 0.44-0.35 1.69 1.69 0 0 0 0.3-0.45l1.29a3 3 0 0 1-1.23 1.32A3.8 3.8 0 0 1 39.85 18.13ZM42 13.87a2.41 2.41 0 0 0-0.2-0.87 2.13 2.13 0 0 0-0.47-0.65 2.1 2.1 0 0 0-0.67-0.42 2.19 2.19 0 0 0-0.81-0.15 2.14 2.14 0 0 0-1.46 2.07 2.07 0 0 0-0.46 2.49 2.49 0 0 0-0.22ZM46.64 18.13a2.65 2.65 0 0 1-1-0.17 2.34 2.34 0 0 1-0.77-0.47 2.22 2.22 0 0 1-0.51-0.71 2.14 2.14 0 0 1-0.18-0.89A1.91 1.91 0 0 1 44.4 15a2.14 2.14 0 0 1 0.62-0.71 3 3 0 0 1 1-0.47 4.3 4.3 0 0 1 1.22-0.16 5.67 5.67 0 0 1 1 0.09 4.94 4.94 0 0 1 0.89v-0.49a1.66 1.66 0 0 0-0.45-1.24 1.78 1.78 0 0 0-1.3-0.44 3.13 3.13 0 0 0-1.13 5.73 5.73 0 0 0-1.14l-0.46-1a5.07 5.07 0 0 1 2.87-0.93 3.28 3.28 0 0 1 2.3 2.79 2.79 0 0 1 0.82 2.16v2.59c0 0.32V18l-0.38 0h-0.31a1 1 0 0 1-0.68-0.22 0 0 1-0.29-0.56v-0.45a3.19 3.19 0 0 1-1.18 1A3.48 3.48 0 0 1 46.64 18.13ZM47 17a2.71 2.71 0 0 0 1-0.2 1.78 1.78 0 0 0 0.76-0.55 0 0 0 0.29-0.52V14.8a4.63 4.63 0 0 0-0.81-0.23 4.5 4.5 0 0 0-0.84-0.08 2.3 2.3 0 0 0-1.32 1.07 1.07 0 0 0-0.51 1.17 1.17 0 0 0 0.4A1.45 1.45 0 0 0 47 17ZM51.9 14.4a3.89 3.89 0 0 1 0.26-1.4 3.49 3.49 0 0 1 1.92-2 3.84 3.84 0 0 1 1.53-0.29 3.61 3.61 0 0 1 1.91 3.09 3.09 0 0 1 1.2 1.29L57.25 13a1.88 1.88 0 0 0-0.7-0.71 1.91 1.91 0 0 0-1-0.25 2 2 0 0 0-1.52 2.37 2.37 0 0 0-0.45 2.75 2.75 0 0 0-0.16 1 2.66 2.66 0 0 0 0.17 1 2.47 2.47 0 0 0 0.46 2.15 2.15 0 0 0 0.68 1.91 1.91 0 0 0 0.83 2.08 2.08 0 0 0 0.55-0.08 1.91 1.91 0 0 0 0.9-0.53 1.18 1.18 0 0 0 0.25-0.38l1.48a2.93 2.93 0 0 1-1.19 1.32 3.69 3.69 0 0 1-2 0.51 3.73 3.73 0 0 1-1.52-0.3A3.57 3.57 0 0 1 52.92 17a3.69 3.69 0 0 1-0.75-1.18A3.81 3.81 0 0 1 51.9 14.4ZM66.37 18H64.86V14a2.45 2.45 0 0 0-0.35-1.46 1.17 1.17 0 0 0-1-0.47 1.72 1.72 0 0 0-0.63 2.27 2.27 0 0 0-0.6 2.66 2.66 0 0 0-0.5 2.32 2.32 0 0 0-0.33V18H60V8h1.5v4.27a3 3 0 0 1 2.66-1.56 2.25 2.25 0 0 1 1.1 1.93 1.93 0 0 1 0.69 2.57 2.57 0 0 1 0.36 5.83 5.83 0 0 1 0.1 1.12ZM67.26 20.6a2.83 2.83 0 0 1-0.93-0.15 2.34 2.34 0 0 1-0.79-0.46l0.67-1a1.09 1.09 0 0 0 0.41 1.52 1.52 0 0 0 0.46 1 1 0 0 0 1-1V10.83h1.5v7.31a2.61 2.61 0 0 1-0.18 1 2.41 2.41 0 0 1-0.51 2.25 2.25 0 0 1-0.75A2.31 2.31 0 0 1 67.26 20.6ZM68.1 9.65V8h1.5V9.66ZM73.3 18.13a2.65 2.65 0 0 1-1-0.17 2.34 2.34 0 0 1-0.77-0.47 2.2 2.2 0 0 1-0.51-0.71 2.13 2.13 0 0 1-0.19-0.89A1.91 1.91 0 0 1 71.1 15a2.13 2.13 0 0 1 0.62-0.71 3 3 0 0 1 1-0.47 4.3 4.3 0 0 1 1.22-0.16 5.67 5.67 0 0 1 1 0.09 5 5 0 0 1 0.89V13.5a1.66 1.66 0 0 0-0.45-1.24 1.78 1.78 0 0 0-1.3-0.44A3.13 3.13 0 0 0 73 12a5.73 5.73 0 0 0-1.14l-0.46-1a5.07 5.07 0 0 1 2.87-0.93 3.28 3.28 0 0 1 2.3 2.79 2.79 0 0 1 0.82 2.16v2.59c0 0.32V18l-0.38 0H77a1 1 0 0 1-0.68-0.22 0 0 1-0.29-0.56v-0.45a3.19 3.19 0 0 1-1.18 1A3.47 3.47 0 0 1 73.3 18.13ZM73.71 17a2.72 2.72 0 0 0 1-0.2 1.78 1.78 0 0 0 0.76-0.55 0 0 0 0.29-0.52V14.8a4.63 4.63 0 0 0-0.81-0.23 4.49 4.49 0 0 0-0.84-0.08 2.3 2.3 0 0 0-1.32 1.07 1.07 0 0 0-0.51 1.17 1.17 0 0 0 0.4A1.45 1.45 0 0 0 73.71 17ZM83.13 12.13a3.37 3.37 0 0 0-1.55 2.13 2.13 0 0 0-1 1.07V18H79.1V10.83h1.4v1.6a3.27 3.27 0 0 1 1-1.18 2.34 2.34 0 0 1 1.28-0.49h0.38Z" fill="#fff"/>
  <path d="M20.79 15.74C20.53 9 13.33 8.46 13.33 8.46c-3.47-0.72-4.71 1.73-4.16 4.09 0 0 1.23 9.7 2.37 13.45C13.66 23.86 21.06 22.49 20.79 15.74Z" fill="#ff6d00"/>
  <path d="M8.6 0c2 1.83 3.81 4.17 4.05 6.79a7.72 7.72 0 0 1-1.2 4.93 5.28 5.28 0 0 1-4.31-5A13.74 13.74 0 0 1 8.6 0Z" fill="#4caf50"/>
  <path d="M11.92 11.78C12.49 6.87 18 6.56 18 6.56l-0.6-1.47A8 8 0 0 0 11 11.72 6.63 6.63 0 0 1 11.92 11.78Z" fill="#aa721b"/>
  <path d="M18 17.42c0-5.74-6.8-5.7-6.8-5.7a3.75 3.75 0 0 0-3.38-1.53A12.26 12.26 0 0 0 4 10.81L3.83 11a7.23 7.23 0 0 0-0.09 9.75C6.17 23.55 10 24.94 11.53 26 11.53 24.22 18 22.17 18 17.42Z" fill="#ffab00"/>
  <path d="M6.26 6.4A27.78 27.78 0 0 0 0 5.49a11.16 11.16 0 0 0 3.47 4.94 8.33 8.33 0 0 0 7.78 1.3C11.27 10.59 9.33 7.27 6.26 6.4Z" fill="#64dd17"/>
</svg>
