<svg xmlns="http://www.w3.org/2000/svg" viewBox="0 0 200 120"><title>program-providers-boy-scouts</title><path d="M145.64,50.39l1.92-2.74c.86,1.81,4.28,7,1.2,16.35S137.32,77.45,133.9,79.06a10.66,10.66,0,0,0-1-8,12.61,12.61,0,0,0-5.75-4.93l2.81-1.92s3.49,2.12,5,4.45A24.35,24.35,0,0,1,137.34,74s5.72-3.61,8-9.07C148.92,56.34,145.64,50.39,145.64,50.39Z" style="fill:#999"/><polyline points="139.17 57.3 137.87 61.24 133.73 61.24 137.08 63.68 135.82 67.62 139.17 65.22 142.52 67.62 141.26 63.68 144.61 61.24 140.47 61.24 139.17 57.3" style="fill:#999"/><path d="M100,10.09c-1.16,3-10.33,17.41-12.76,24.67A41.07,41.07,0,0,0,85.05,45.5a25.27,25.27,0,0,0-14.16-4.93A19.17,19.17,0,0,0,59.77,44H55.22s5.61-5.61,13-6.32,14.39,2.71,14.39,2.71A64.1,64.1,0,0,1,87,27.54c3-6,13-22.63,13-24.54,0,1.91,10,18.52,13,24.54a64.11,64.11,0,0,1,4.46,12.83s7-3.43,14.39-2.71,13,6.32,13,6.32h-4.55a19.18,19.18,0,0,0-11.11-3.42,25.27,25.27,0,0,0-14.16,4.93,41.08,41.08,0,0,0-2.19-10.74C110.33,27.5,101.16,13.14,100,10.09Z" style="fill:#999"/><path d="M54.36,50.39l-1.92-2.74c-.86,1.81-4.28,7-1.2,16.35S62.68,77.45,66.1,79.06a10.66,10.66,0,0,1,1-8,12.61,12.61,0,0,1,5.75-4.93l-2.81-1.92s-3.49,2.12-5,4.45A24.33,24.33,0,0,0,62.66,74s-5.72-3.61-8-9.07C51.08,56.34,54.36,50.39,54.36,50.39Z" style="fill:#999"/><polyline points="60.83 57.3 62.13 61.24 66.27 61.24 62.92 63.68 64.18 67.62 60.83 65.22 57.48 67.62 58.74 63.68 55.39 61.24 59.53 61.24 60.83 57.3" style="fill:#999"/><path d="M100,117a29.47,29.47,0,0,1-6-6.6,48.8,48.8,0,0,1-4.11-7c-5.31,2.68-13.54,1.68-18.45-6.79-4.07-7-1.59-16-.29-17.57-.22,2.48,2.26,7,5.75,8.42,2.93,1.15,6-.75,7.29-1.85l2.46,1.81a13.52,13.52,0,0,1-7.92,3.26,9.82,9.82,0,0,1-6.65-2.64c0,3,.48,6.37,4.57,10.65a10.24,10.24,0,0,0,14.65.13c.23,1.57,2.28,5.56,4.26,8.65,1.71,2.68,3.94,5.34,4.39,5.44.46-.1,2.68-2.76,4.39-5.44,2-3.08,4-7.08,4.26-8.65a10.24,10.24,0,0,0,14.65-.13c4.09-4.27,4.59-7.67,4.57-10.65a9.82,9.82,0,0,1-6.65,2.64,13.52,13.52,0,0,1-7.92-3.26l2.46-1.81c1.33,1.1,4.36,3,7.29,1.85,3.49-1.37,6-5.94,5.75-8.42,1.3,1.61,3.77,10.55-.29,17.57-4.91,8.47-13.14,9.47-18.45,6.79a48.78,48.78,0,0,1-4.11,7A29.47,29.47,0,0,1,100,117Z" style="fill:#999"/><path d="M95.54,84.57a17.24,17.24,0,0,1-4.26-5.26L87.6,87.76a.58.58,0,0,0,0,.31.66.66,0,0,0,.21.36l1.08.68s-.73,1.5-1.44,1.85a8.89,8.89,0,0,1-3.43.85c-1.26,0-1.67-.14-2.06.25a1.55,1.55,0,0,0-.38,1.21,2.49,2.49,0,0,0,1.29,2.06,3.93,3.93,0,0,1-.16-.91c0-.38.08-1,.64-1h7.78s.88,0,.88.7-.2.95-.2.95A2,2,0,0,0,93,93.38c0-1.19-.71-1.51-1.09-1.51h-1a2.49,2.49,0,0,1-1.32-.33A9,9,0,0,1,90.43,90s.1-.17.38-.08a4.92,4.92,0,0,0,2.22.59Z" style="fill:gray"/><path d="M91.36,75.64a31.54,31.54,0,0,1-1.39-6h1.39v6Z" style="fill:#999"/><path d="M93,79.29A12.12,12.12,0,0,0,94,80.67l.54.65h0V69.61H93Z" style="fill:#999"/><path d="M96.13,83a16.64,16.64,0,0,0,1.49,1.22h0V69.61H96.13V83Z" style="fill:#999"/><path d="M104.45,84.57a17.24,17.24,0,0,0,4.26-5.26l3.68,8.45a.58.58,0,0,1,0,.31.66.66,0,0,1-.21.36l-1.08.68s.73,1.5,1.44,1.85a8.89,8.89,0,0,0,3.43.85c1.26,0,1.67-.14,2.06.25a1.55,1.55,0,0,1,.38,1.21,2.49,2.49,0,0,1-1.29,2.06,3.93,3.93,0,0,0,.16-.91c0-.38-.08-1-.64-1h-7.78s-.88,0-.88.7.2.95.2.95a2,2,0,0,1-1.21-1.7c0-1.19.71-1.51,1.09-1.51h1a2.48,2.48,0,0,0,1.32-.33,9,9,0,0,0-.88-1.58s-.1-.17-.38-.08a4.92,4.92,0,0,1-2.22.59Z" style="fill:gray"/><path d="M100,90.22c1.59,0,4.17-.17,5-.62l-1.66-4.2A20,20,0,0,1,100,87.23a20,20,0,0,1-3.36-1.84L95,89.6C95.83,90,98.4,90.22,100,90.22Z" style="fill:gray"/><path d="M93.16,55.73c-1.18.08-6.66-5.56-8.38-6.89a15.15,15.15,0,0,0-3.64-2.14,12.82,12.82,0,0,0-5.33-1H52.72s.79,1.89,2.07,2.13,10.79,1.4,10.79,1.4H55a5.28,5.28,0,0,0,2.58,2.19c1.49.38,8.33,1.06,8.33,1.06H58.07A3.91,3.91,0,0,0,61.25,55c2.48.31,7.77.86,7.77.86H61.7a4.79,4.79,0,0,0,2.81,2.29c1.75.33,8.43,1.16,8.43,1.16h-7a4.53,4.53,0,0,0,2.22,1.92c1.33.38,8.21,1.33,8.21,1.33h-6a6.4,6.4,0,0,0,2.92,2.28c1.63.43,7.17,1.32,7.17,1.32H76.17a13.66,13.66,0,0,0,3.25,2c.56.18,5.65,1.27,5.65,1.27h-3l6,3.55v.65l-7,6.91a16.44,16.44,0,0,0,2.68,3.2A37.47,37.47,0,0,0,87,86.11l3.55-8.16-.3-.68c-2.71-6.47-2.19-14.59-2-16.41L100,58.17l11.65,2.68c.23,1.83.76,9.95-2,16.41l-.3.68,3.55,8.16a37.52,37.52,0,0,0,3.31-2.32,16.44,16.44,0,0,0,2.68-3.2l-7-6.91V73l6-3.55h-3s5.09-1.1,5.65-1.27a13.65,13.65,0,0,0,3.25-2h-4.28s5.54-.89,7.17-1.32a6.4,6.4,0,0,0,2.92-2.28h-6s6.88-1,8.21-1.33a4.53,4.53,0,0,0,2.22-1.92h-7s6.69-.84,8.43-1.16a4.79,4.79,0,0,0,2.8-2.29H131s5.29-.55,7.77-.86a3.91,3.91,0,0,0,3.18-2.55H134s6.84-.68,8.33-1.06a5.29,5.29,0,0,0,2.58-2.19H134.41s9.51-1.16,10.79-1.4,2.07-2.13,2.07-2.13H124.19a12.82,12.82,0,0,0-5.33,1,15.15,15.15,0,0,0-3.64,2.14c-1.72,1.33-7.2,6.89-8.38,6.89,0,0-.52,0-1-.9-.52-1.05-1.51-8.54-1.51-8.54l1.17-1.84H103.7c-1,0-2.19-.37-3.31-.37a4.06,4.06,0,0,0-4,2.41,5.48,5.48,0,0,0-1.59-.25c-.86,0-2.41.34-2.41,1.72s.63,2,1.26,2a2.37,2.37,0,0,1-.31-1c.06-.36.69-.57,1-.57l3.14,0s1.36-.06,1.36-1c0,0-1.32-.15-1.32-.59s1.91-.57,2.41-.57,2.22,0,2.58,1,1.34,8.73,1.34,8.73-2.53.27-3.31.27S97,55.86,97,55.86s1.72-5,1.57-5.53-1.47-1-2-1.09-2.64,0-2.64,0a4.45,4.45,0,0,0,2.49,1.68S95.26,55.59,93.16,55.73Z" style="fill:gray"/><path d="M110.17,68s.09-2.16.09-2.9-.09-3-.09-3L100,59.68,89.82,62.12s-.09,2.22-.09,3,.09,2.9.09,2.9Z" style="fill:gray"/><path d="M108.63,75.64a31.54,31.54,0,0,0,1.39-6h-1.39v6Z" style="fill:#999"/><path d="M107,79.29a12.11,12.11,0,0,1-.95,1.38l-.54.65h0V69.61H107Z" style="fill:#999"/><path d="M103.86,83a16.61,16.61,0,0,1-1.49,1.22h0V69.61h1.49V83Z" style="fill:#999"/><path d="M100,85.57a5.6,5.6,0,0,0,.68-.3V69.61H99.31V85.28A5.64,5.64,0,0,0,100,85.57Z" style="fill:#999"/><path d="M136.79,102.19a3.47,3.47,0,0,1-4.93,0,3.39,3.39,0,0,1-1-2.48,3.48,3.48,0,1,1,5.94,2.47Zm-4.58-4.6a3,3,0,0,0,0,4.26,3,3,0,0,0,4.24,0,3,3,0,0,0,0-4.26,3,3,0,0,0-4.24,0Zm2.05.2a3.12,3.12,0,0,1,1.18.19q.46.19.46.92a.77.77,0,0,1-.29.7,1.67,1.67,0,0,1-.65.24.93.93,0,0,1,.66.38,1,1,0,0,1,.21.59v.57a.37.37,0,0,0,0,.2l0,0h-.63v-.51q0-.66-.29-.83a1.62,1.62,0,0,0-.82-.17h-.53v1.51h-.67V97.79Zm.72.6a1.74,1.74,0,0,0-.81-.14h-.57v1.39h.61a2,2,0,0,0,.73-.12.53.53,0,0,0,.3-.56A.6.6,0,0,0,135,98.4Z" style="fill:gray"/><polyline points="98.31 64.94 98.01 65.86 97.04 65.86 97.82 66.44 97.53 67.36 98.31 66.8 99.1 67.36 98.8 66.44 99.59 65.86 98.62 65.86 98.31 64.94" style="fill:#fff"/><polyline points="95.11 64.94 94.81 65.86 93.84 65.86 94.63 66.44 94.33 67.36 95.11 66.8 95.9 67.36 95.6 66.44 96.39 65.86 95.42 65.86 95.11 64.94" style="fill:#fff"/><polyline points="91.9 64.94 91.59 65.86 90.62 65.86 91.41 66.44 91.11 67.36 91.9 66.8 92.68 67.36 92.39 66.44 93.17 65.86 92.2 65.86 91.9 64.94" style="fill:#fff"/><polyline points="97.28 60.89 96.98 61.82 96.01 61.82 96.79 62.39 96.5 63.31 97.28 62.75 98.07 63.31 97.77 62.39 98.56 61.82 97.59 61.82 97.28 60.89" style="fill:#fff"/><polyline points="94.62 61.53 94.31 62.45 93.34 62.45 94.13 63.02 93.83 63.94 94.62 63.38 95.4 63.94 95.11 63.02 95.89 62.45 94.92 62.45 94.62 61.53" style="fill:#fff"/><polyline points="91.9 62.2 91.59 63.12 90.62 63.12 91.41 63.69 91.11 64.61 91.9 64.05 92.68 64.61 92.39 63.69 93.17 63.12 92.2 63.12 91.9 62.2" style="fill:#fff"/><polyline points="101.68 64.94 101.98 65.86 102.95 65.86 102.17 66.44 102.46 67.36 101.68 66.8 100.89 67.36 101.19 66.44 100.41 65.86 101.37 65.86 101.68 64.94" style="fill:#fff"/><polyline points="104.88 64.94 105.18 65.86 106.15 65.86 105.37 66.44 105.66 67.36 104.88 66.8 104.09 67.36 104.39 66.44 103.6 65.86 104.57 65.86 104.88 64.94" style="fill:#fff"/><polyline points="108.09 64.94 108.4 65.86 109.37 65.86 108.58 66.44 108.88 67.36 108.09 66.8 107.31 67.36 107.6 66.44 106.82 65.86 107.79 65.86 108.09 64.94" style="fill:#fff"/><polyline points="102.71 60.89 103.01 61.82 103.98 61.82 103.2 62.39 103.5 63.31 102.71 62.75 101.92 63.31 102.22 62.39 101.44 61.82 102.41 61.82 102.71 60.89" style="fill:#fff"/><polygon points="100 62.06 100.78 62.62 100.48 61.7 101.27 61.12 100.3 61.12 100 60.2 99.7 61.12 98.73 61.12 99.51 61.7 99.21 62.62 100 62.06" style="fill:#fff"/><polyline points="105.37 61.53 105.68 62.45 106.65 62.45 105.86 63.02 106.16 63.94 105.37 63.38 104.59 63.94 104.88 63.02 104.1 62.45 105.07 62.45 105.37 61.53" style="fill:#fff"/><polyline points="108.09 62.2 108.4 63.12 109.37 63.12 108.58 63.69 108.88 64.61 108.09 64.05 107.31 64.61 107.6 63.69 106.82 63.12 107.79 63.12 108.09 62.2" style="fill:#fff"/><path d="M100,13.28s1.91,28.2,2.19,29.21H97.81c.28-1,2.19-29.21,2.19-29.21Z" style="fill:#999"/></svg>