<svg xmlns="http://www.w3.org/2000/svg" viewBox="0 0 200 120"><title>program-providers-girl-scouts</title><path d="M77.65,96.8a38.76,38.76,0,0,0,9,8.56C92,91.75,104.9,76,106.79,73.83c4.51-5.28,7.7-6.71,9.33-6.71s7.3.16,10,0c3.17-.19,3.84-.95,3.84-4.61,0-2.78,2.88-3,2.88-4,0-1.54-1.54-1.44-2.21-1.54s-.29-.38-.29-.38c4.13-1.44,3.65-3,3.26-3.74-.73-1.47.29-2.11,1.92-3.07s.77-2.3-.19-3.55c-4.26-5.54-3.65-7.1-3.65-9.79,0-1.55,0-2.92-.11-4.14h0C131.55,18.55,117.85,10,100,10S68.45,18.55,68.45,32.26c-16.89,0-24.55,9.92-24.55,28.9,0,22.44,10.51,28.26,20.24,29.76,2.25-3.88,5.62-9.58,9-14.89,8.64-13.44,22.27-21.69,30.91-35.51,6.53-10.45,8.34-24.09,8.34-24.09,3.46,4.41,5.65,6.13,5.65,17.56,0,2.69-.61,4.25,3.65,9.79,1,1.25,1.82,2.59.19,3.55s-2.65,1.6-1.92,3.07c.38.77.86,2.3-3.26,3.74,0,0-.38.29.29.38s2.21,0,2.21,1.54c0,1.06-2.88,1.25-2.88,4,0,3.66-.67,4.41-3.84,4.61-2.68.16-8.35,0-10,0s-5.65,1.43-9.69,5.66a82.45,82.45,0,0,0-15,23.2c-.87,2-.67,2.51-.18,3.23Z" style="fill:#999"/><path d="M143.92,34.73c0,1,.07,2.12.07,3.34,0,2.69-.61,4.25,3.65,9.79,1,1.25,1.82,2.59.19,3.55s-2.65,1.6-1.92,3.07c.38.77.86,2.3-3.26,3.74,0,0-.38.29.29.38s2.21,0,2.21,1.54c0,1.06-2.88,1.25-2.88,4,0,3.66-.67,4.7-3.84,4.9-2.68.16-6.61,0-8.24,0-3.17,0-6.24,2-10.75,7.25-1.91,2.24-15.91,19.77-21.22,33.58a17.17,17.17,0,0,0,1.77.1c10,0,21.08-9.15,25.69-18.56,10.37,0,30.43.72,30.43-30.28,0-13.49-3.88-22.4-12.18-26.43Z" style="fill:#999"/></svg>