<svg xmlns="http://www.w3.org/2000/svg" viewBox="0 0 200 120"><title>program-providers-golden-state-warriors</title><path d="M69.82,93.63l-3.09-2.75-.27.31,0,0a.7.7,0,0,1,.17.4.26.26,0,0,1-.08.21s-.15.13-.41.24l-5.42,2.68,2.16-5.54a1.28,1.28,0,0,1,.24-.44.27.27,0,0,1,.24-.12.68.68,0,0,1,.34.12l.06,0,.27-.3-3-2.64-.27.31,0,.06a.87.87,0,0,1,.19.52,3,3,0,0,1-.21.86l-3,8.08-.29.65a.44.44,0,0,1-.3.15.65.65,0,0,1-.34-.12l-.08,0-.2.24-.05.06,2.73,2.44.24-.24,0,0,0-.06a.91.91,0,0,1-.18-.46.29.29,0,0,1,.08-.21,2,2,0,0,1,.54-.29l5.87-2.94-2.25,6a2.37,2.37,0,0,1-.29.67.34.34,0,0,1-.27.14.69.69,0,0,1-.39-.14l-.06,0-.26.32,2.78,2.48.27-.32,0,0a.69.69,0,0,1-.2-.42.39.39,0,0,1,.09-.22,2.66,2.66,0,0,1,.66-.41L73.58,99a3,3,0,0,1,.81-.32h.05a1.18,1.18,0,0,1,.5.15l.05,0,.27-.3-2.92-2.61-.27.3,0,.06a.75.75,0,0,1,.19.43l-.06.2a2,2,0,0,1-.53.33l-5.19,2.71,2.11-5.59a1.61,1.61,0,0,1,.2-.42.36.36,0,0,1,.26-.13.91.91,0,0,1,.39.12l0,0,.22-.25.06-.05" style="fill:gray"/><path d="M77,105.8l-3-1.46,3.09-2.5-.12,4M80.35,100l-3.62-1.77-.18.36,0,0a.56.56,0,0,1,.23.4l0,.18a1.68,1.68,0,0,1-.43.45L69,105.47a1.94,1.94,0,0,1-.59.37l-.2,0-.29,0h-.07l-.19.36,3.4,1.66.19-.36-.06,0A.61.61,0,0,1,71,107l0-.14a1.34,1.34,0,0,1,.34-.35l1.33-1.06L77,107.62v1.66a1.26,1.26,0,0,1-.05.48.39.39,0,0,1-.34.22l-.26,0,0,0-.19.36,3.76,1.86.18-.38-.06,0a.82.82,0,0,1-.33-.43,2.58,2.58,0,0,1-.1-.82l0-9.38h0a1.2,1.2,0,0,1,.08-.51.41.41,0,0,1,.37-.18l.17,0,.22-.27Z" style="fill:gray"/><path d="M91.06,105.44a1,1,0,0,1,.35.82l0,.37a1.15,1.15,0,0,1-.79,1l-.48.07H90l-1.12-.19-3.51-.73.54-2.64,3.52.73a8.45,8.45,0,0,1,1.1.27,2,2,0,0,1,.54.32m2.09-1.13a3.49,3.49,0,0,0-1.17-.79,12.05,12.05,0,0,0-1.92-.55l-6.76-1.4-.08.34a1.79,1.79,0,0,1,.37.34l0,.17v.15l-1.89,9a.56.56,0,0,1-.16.3.79.79,0,0,1-.38.08l-.13.33,0,.08,3.49.73.08-.33-.35-.34a.37.37,0,0,1,0-.19v-.13l.73-3.47,2.76.58,1.44,3.54a2.33,2.33,0,0,1,.23.7v0c0,.08-.13.12-.32.13H89l-.14.32,0,.08,4,.83.09-.41-.08,0a.92.92,0,0,1-.52-.34,6.18,6.18,0,0,1-.59-1.15l-1.41-3.26h.22a2.93,2.93,0,0,0,3.28-2.52,4.14,4.14,0,0,0,0-1.54A2.68,2.68,0,0,0,93.15,104.31Z" style="fill:gray"/><path d="M103.34,105.89a1.15,1.15,0,0,1,.6,1.09v.08a1.17,1.17,0,0,1-.52,1.05,2,2,0,0,1-.58.21l-1.14.09-3.59.15L98,105.77l4.31-.07.43,0a1.84,1.84,0,0,1,.6.16m-1.56-2.15L95,104l-.07.34a2,2,0,0,1,.43.25.44.44,0,0,1,.1.32l.36,9.25a.41.41,0,0,1-.08.29.7.7,0,0,1-.34.19l-.06.34,3.5,0,.06-.35a1.58,1.58,0,0,1-.42-.24.48.48,0,0,1-.12-.32l-.14-3.53,2.83-.11,2.26,3.09a2,2,0,0,1,.39.62h0c0,.1-.11.17-.34.22l-.05.34,4-.06.08-.35a1.88,1.88,0,0,1-.68-.29,6.11,6.11,0,0,1-.85-1l-2.16-2.83c1.87-.39,2.79-1.42,2.78-3.11v-.18a3.88,3.88,0,0,0-.35-1.48,2.52,2.52,0,0,0-1-1.12,3.24,3.24,0,0,0-1.34-.47l-1.29-.08Z" style="fill:gray"/><path d="M107.63,103.92l2,9v.15l0,.18a.62.62,0,0,1-.32.24v.35l0,.08,3.49-.77-.08-.33-.45-.17a.39.39,0,0,1-.16-.29l-2-9v-.15l0-.17a.8.8,0,0,1,.31-.24v-.34l0-.08-3.49.76.06.34a1.88,1.88,0,0,1,.47.17.41.41,0,0,1,.15.28" style="fill:gray"/><path d="M120.16,101.68a3.64,3.64,0,0,1,2.21,2.16,3.6,3.6,0,0,1,.31,1.42v0a3.34,3.34,0,0,1-.34,1.53,3.63,3.63,0,0,1-2,1.84,4.15,4.15,0,0,1-1.6.35,3.45,3.45,0,0,1-1.1-.18,3.56,3.56,0,0,1-2.2-2.1,4,4,0,0,1-.34-1.56,3.54,3.54,0,0,1,.34-1.5,3.72,3.72,0,0,1,2-1.83,4.48,4.48,0,0,1,1.64-.34,3.87,3.87,0,0,1,1.1.16M116.64,100q-3.55,1.55-4,4.63a4.53,4.53,0,0,0-.08.85,5.75,5.75,0,0,0,.48,2.27,5.66,5.66,0,0,0,1.23,1.83,5.24,5.24,0,0,0,2.06,1.3,5.51,5.51,0,0,0,1.86.32,7.69,7.69,0,0,0,3-.66c2.34-1,3.67-2.54,4-4.64l.07-.92a5.76,5.76,0,0,0-3.77-5.34,5.3,5.3,0,0,0-1.84-.32A7.44,7.44,0,0,0,116.64,100Z" style="fill:gray"/><path d="M129.6,94.63a1.47,1.47,0,0,1,.57-.2l.17,0a1.2,1.2,0,0,1,1,.55,1.38,1.38,0,0,1,.32.81,1,1,0,0,1-.09.41,1.62,1.62,0,0,1-.34.51l-.87.74-2.85,2.18-1.63-2.13,2.83-2.19c.4-.3.71-.53.93-.66M122.89,98a.53.53,0,0,1,.28.21l5.63,7.32a.46.46,0,0,1,.13.29h0a.71.71,0,0,1-.18.36l0,0,.24.33,2.83-2.17-.24-.34-.06,0-.33.07h-.05a.56.56,0,0,1-.28-.19l-2.16-2.79,2.24-1.74,3.65,1.21c.43.13.64.23.67.3l0,.06a.5.5,0,0,1-.18.29l0,.05.21.26,0,.06,3.27-2.51-.25-.33-.08,0a.87.87,0,0,1-.54.18h-.06a6.77,6.77,0,0,1-1.23-.3L133,97.7a3.5,3.5,0,0,0,1.1-2.36,3.14,3.14,0,0,0-.73-1.92,3.78,3.78,0,0,0-1.17-1,2.61,2.61,0,0,0-1.29-.33h-.19a3.38,3.38,0,0,0-1.35.4,9.93,9.93,0,0,0-1.67,1.1l-5.47,4.21.24.32.06,0a.86.86,0,0,1,.34-.08Z" style="fill:gray"/><path d="M132.73,90.51a3,3,0,0,0,1.2,2.25,3.15,3.15,0,0,0,1.44.66l.46,0A2.57,2.57,0,0,0,137,93.2a4.1,4.1,0,0,0,1-.58l1.29-1.2.88-.88a7.3,7.3,0,0,1,1.25-1.09.87.87,0,0,1,.45-.14.7.7,0,0,1,.43.17,1.16,1.16,0,0,1,.34.57l0,.38-.05.43a4,4,0,0,1-.83,1.61,7.17,7.17,0,0,1-1.55,1.36,4.12,4.12,0,0,1-1.59.73l-.2,0a.72.72,0,0,1-.47-.15l-.08-.06-.4.14,1.4,2.76.33-.14.09-.4.47-.25a9.68,9.68,0,0,0,3.53-2.7,8.58,8.58,0,0,0,1.2-2A4.77,4.77,0,0,0,144.9,90a2.29,2.29,0,0,0-.06-.59,3.09,3.09,0,0,0-1.15-1.91,3,3,0,0,0-1.29-.62l-.65-.08-.72.1a4.43,4.43,0,0,0-1.25.61,9.52,9.52,0,0,0-1.41,1.2l-.89.91a9.1,9.1,0,0,1-1.21,1.11,1.08,1.08,0,0,1-.58.21.73.73,0,0,1-.43-.15.93.93,0,0,1-.32-.6l0-.23a1.78,1.78,0,0,1,.12-.63,4.79,4.79,0,0,1,.78-1.27,5.67,5.67,0,0,1,2.83-1.95L139,86a.41.41,0,0,1,.24.06l.09.09.34-.09.07,0-1.23-2.78-.33.13a1.13,1.13,0,0,1-.14.45,2.28,2.28,0,0,1-.46.3,16.21,16.21,0,0,0-2,1.27,8.94,8.94,0,0,0-1.41,1.4,5.59,5.59,0,0,0-1.46,3.43l0,.28" style="fill:gray"/><path d="M99.09,13.55A43.7,43.7,0,0,0,55.35,57.27,43.71,43.71,0,1,0,116.1,17a43.18,43.18,0,0,0-17-3.43" style="fill:#999"/><path d="M57.39,25.48c-.22.19-.43.4-.66.62a7.46,7.46,0,0,0-.68.81,5.08,5.08,0,0,0-.75,1.41,3.81,3.81,0,0,0-.19,1.39A3,3,0,0,0,55.49,31a3.55,3.55,0,0,0,1,1.05,3.29,3.29,0,0,0,1.29.61,2.92,2.92,0,0,0,1.31,0A3.44,3.44,0,0,0,60.32,32a5.45,5.45,0,0,0,1.11-1.16l.52-.75.45-.83a5.66,5.66,0,0,0,.31-.91,4.81,4.81,0,0,0,.13-1l-.16-.13-.17.09a.16.16,0,0,1-.17,0l-1.14-.83-.13-.18a.75.75,0,0,1,.11-.3L61,25.85l-1.85,2.52-.2.18a.34.34,0,0,1-.28-.07l-.13.18,1.29,1,.13-.19a.47.47,0,0,1-.19-.27.43.43,0,0,1,.1-.26l.94-1.29.87.62-.37.93a6.55,6.55,0,0,1-.66,1.11,3.65,3.65,0,0,1-.64.65,2.32,2.32,0,0,1-.81.42l-.91,0a2.49,2.49,0,0,1-1-.45,2.28,2.28,0,0,1-.72-.8,2.06,2.06,0,0,1-.24-.89,2.4,2.4,0,0,1,.15-.9,3,3,0,0,1,.43-.81l.51-.62A3.85,3.85,0,0,1,58,26.4a1.92,1.92,0,0,1,.56-.32H59l.1.1.21-.15-.9-1.57-.15.07v.15l-.06.17-.24.21-.53.41" style="fill:gray"/><path d="M67.91,21.39a2.6,2.6,0,0,1-.35.89A3,3,0,0,1,67,23a3.33,3.33,0,0,1-.81.53,2.62,2.62,0,0,1-.92.26,2.1,2.1,0,0,1-.91-.1,1.8,1.8,0,0,1-.81-.53,1.78,1.78,0,0,1-.45-.85,2.15,2.15,0,0,1,0-.93,2.9,2.9,0,0,1,.34-.9,3.57,3.57,0,0,1,.61-.75,3.34,3.34,0,0,1,.81-.53,2.76,2.76,0,0,1,.91-.25,2.12,2.12,0,0,1,.92.09,2.15,2.15,0,0,1,.81.53,2,2,0,0,1,.44.85,2.15,2.15,0,0,1,0,.93m.54-2.71a2.81,2.81,0,0,0-1.28-.85,3.57,3.57,0,0,0-1.41-.12,4.63,4.63,0,0,0-1.38.41,5.2,5.2,0,0,0-1.17.8,4.73,4.73,0,0,0-.9,1.1,4.05,4.05,0,0,0-.54,1.33,3.38,3.38,0,0,0,0,1.41,2.86,2.86,0,0,0,.72,1.36,2.89,2.89,0,0,0,1.29.85,3.41,3.41,0,0,0,1.41.12,3.84,3.84,0,0,0,1.36-.43,5.52,5.52,0,0,0,1.16-.81,5,5,0,0,0,.91-1.09,4,4,0,0,0,.56-1.31,3.41,3.41,0,0,0,0-1.42A3,3,0,0,0,68.46,18.68Z" style="fill:gray"/><path d="M69.14,14.79l3,4.81c.08.14,0,.26-.2.39l.12.2,5-3.13a1.25,1.25,0,0,1,.28-.14c.07,0,.14,0,.21.11l.19-.11-.91-1.46-.19.11a.3.3,0,0,1,0,.27.43.43,0,0,1-.21.24L73,18.26,70.35,14c-.06-.12,0-.24.18-.38l-.11-.18L68.58,14.6l.13.2h.43" style="fill:gray"/><path d="M82.5,10a3.09,3.09,0,0,1,.53.94A3.45,3.45,0,0,1,83.3,12a1.49,1.49,0,0,1-.16.79,1.54,1.54,0,0,1-.53.61,4.47,4.47,0,0,1-.91.47l-1.8.72-1.62-4.11,1.79-.72a5.08,5.08,0,0,1,1-.28l.81.06a1.58,1.58,0,0,1,.65.47M81.38,8.27a4.14,4.14,0,0,0-1.26.28l-3.85,1.53.09.21c.18-.07.3,0,.34.1l2.09,5.27c.06.14,0,.24-.18.31l.08.22,3.85-1.53A4.22,4.22,0,0,0,83.66,14a2.74,2.74,0,0,0,1-2.15,4,4,0,0,0-.31-1.45,3.74,3.74,0,0,0-.77-1.25,2.62,2.62,0,0,0-2.2-.88Z" style="fill:gray"/><path d="M92,5.32a.58.58,0,0,1-.34.16L86,6.57l.05.22.16,0a.21.21,0,0,1,.09.15l1.09,5.55a.24.24,0,0,1,0,.18.23.23,0,0,1-.14.09l0,.22L93,11.89l.31,0c.08,0,.13.06.15.18l.23,0-.33-1.68-.23,0a.28.28,0,0,1-.07.25.38.38,0,0,1-.28.14l-4.09.81-.33-1.68,2.4-.48h.4c.1,0,.16.15.21.34l.22,0L91.21,7.8l-.21,0c0,.2,0,.33-.07.37a.9.9,0,0,1-.36.15l-2.4.47-.31-1.52,4-.78h.37a.29.29,0,0,1,.14.19l.22,0L92.25,5l-.22,0a.22.22,0,0,1-.06.23" style="fill:gray"/><path d="M101.4,9.41,97.82,5.7c-.17-.18-.25-.3-.25-.36s0-.12.1-.12V5H95.53v.22c.15,0,.24.07.24.23V11.1c0,.15-.08.23-.24.23v.23h1.85v-.23c-.19,0-.28-.07-.28-.23V7l3.8,4c.14.14.2.23.2.29s-.05.11-.15.11v.23h2v-.23c-.15,0-.24-.07-.24-.23V5.44c0-.15.08-.23.24-.23V5h-1.89v.22c.22,0,.33.07.33.23v4" style="fill:gray"/><path d="M114.64,7.25a6.82,6.82,0,0,0-1.09-.41,4.52,4.52,0,0,0-1.34-.18,2.89,2.89,0,0,0-1,.19,1.84,1.84,0,0,0-.72.5,1.61,1.61,0,0,0-.38.69,1.82,1.82,0,0,0,0,1,1.72,1.72,0,0,0,.4.69,2.43,2.43,0,0,0,.71.51,8.8,8.8,0,0,0,.86.36l.89.31a5.41,5.41,0,0,1,.75.3,1.55,1.55,0,0,1,.5.34.44.44,0,0,1,.1.46.56.56,0,0,1-.35.39l-.61.11-.68-.05-.53-.12-.62-.24-.62-.36-.5-.4a1,1,0,0,1-.25-.37.59.59,0,0,1,0-.22l-.1-.09-1.07,1.27.14.15a.25.25,0,0,1,.19-.06.73.73,0,0,1,.28.18l.43.34.72.41a8.48,8.48,0,0,0,1.12.4l1.09.21a3.49,3.49,0,0,0,1.15,0,2.42,2.42,0,0,0,1-.4,1.53,1.53,0,0,0,.61-.92,1.66,1.66,0,0,0,0-.93,1.64,1.64,0,0,0-.41-.7,2.68,2.68,0,0,0-.7-.5,8.92,8.92,0,0,0-.86-.38l-.88-.31a6,6,0,0,1-.76-.32,1.28,1.28,0,0,1-.48-.37.48.48,0,0,1-.09-.48.38.38,0,0,1,.24-.31,1.17,1.17,0,0,1,.43-.12l.54,0,.56.09a5.31,5.31,0,0,1,.68.27,3.28,3.28,0,0,1,.6.36,1.85,1.85,0,0,1,.46.38,1.44,1.44,0,0,1,.24.37.66.66,0,0,1,0,.3l.11.08,1.25-1.27-.12-.13a.42.42,0,0,1-.26,0,1,1,0,0,1-.36-.21l-.53-.36-.74-.43" style="fill:gray"/><path d="M124.72,11.33l-5-2.36-.16-.15c0-.06,0-.14,0-.26l-.21-.1L118.6,10l.2.09A.25.25,0,0,1,119,10l.22,0,1.87.89L119,15.38l-.14.12-.17,0-.08.2,1.73.83.1-.21c-.15-.08-.21-.19-.15-.33l2.13-4.48,1.87.88.16.15a.25.25,0,0,1,0,.25l.2.1.75-1.58-.21-.1a.25.25,0,0,1-.19.17l-.23,0" style="fill:gray"/><path d="M128,15.4l-.43,2.51-1.85-1.24L128,15.4m-5.32,1.81h-.31l-.12.19,1.46,1,.13-.18c-.13-.09-.16-.17-.11-.25s.14-.14.31-.24l.86-.48,2.53,1.69-.13,1a.73.73,0,0,1-.1.33l-.12.05-.13,0-.13.19,1.82,1.23.12-.19-.13-.24a.66.66,0,0,1,0-.27l.72-5.94a.46.46,0,0,1,.08-.19.17.17,0,0,1,.17-.11l.19,0,.12-.19-1.75-1.18-.12.19.11.16a.2.2,0,0,1,0,.2l-.2.15L123,17Z" style="fill:gray"/><path d="M133.24,16.64l-1.19,1.29.17.14a.25.25,0,0,1,.24-.1.59.59,0,0,1,.2.1l1.51,1.4-3.36,3.65a.2.2,0,0,1-.17.07.24.24,0,0,1-.15-.06l-.14.17,1.41,1.29.15-.16q-.2-.18-.05-.35l3.37-3.65,1.51,1.39a.53.53,0,0,1,.13.2.29.29,0,0,1-.09.24l.17.15,1.18-1.29L138,21a.27.27,0,0,1-.24.1.32.32,0,0,1-.2-.1l-4.08-3.76-.11-.19a.25.25,0,0,1,.08-.25l-.16-.14" style="fill:gray"/><path d="M139.52,23.83,135,27.28a.26.26,0,0,1-.17,0l-.14-.09-.17.14L138.09,32l.17.25c0,.07,0,.14-.1.23l.14.18,1.36-1.05-.15-.17a.24.24,0,0,1-.24,0,.48.48,0,0,1-.26-.19L136.46,28l1.37-1.05,1.49,1.94a.89.89,0,0,1,.17.35c0,.11-.06.22-.22.34l.14.17,1.53-1.19-.13-.18c-.15.12-.27.16-.36.12l-.3-.27-1.49-1.94,1.23-.94,2.46,3.21a.68.68,0,0,1,.18.34.27.27,0,0,1-.11.21l.14.18,1.31-1-.14-.18a.21.21,0,0,1-.23,0,.57.57,0,0,1-.3-.24l-3.47-4.5-.18.14a.25.25,0,0,1,0,.16l-.09.15" style="fill:gray"/><path d="M98.65,75.61,91.16,51.9l3.17,2.8,6.59,20.77-2.26.14M114.08,75l-2.54.06-3-9.52c1.11.73,2.2,1.43,3.28,2.08Zm.83,0-2.08-6.74c.9.54,1.86,1.1,2.88,1.65l1.58,5.05Zm4.74-3,1,3h-2.47l-1.41-4.49ZM126.24,82q-13.13-1-37.58-.6,17.83-.8,38.44-.33Zm-5.6-9.61A56,56,0,0,0,127.06,75l-5.62-.07ZM82.45,82.76q27.3-.61,42.11.91a37.7,37.7,0,0,1-41.36,6.42C82.94,88.21,82.69,85.76,82.45,82.76ZM78.86,87.7c-.1-1.46-.2-3.08-.29-4.84l.84,0c.1,2.11.2,3.92.31,5.41Zm-4.6-3.45L72.92,83,74.24,83Zm-2.19-6.07,2.21-12.5q-.07,6.59-.07,12.22ZM82,77q-.33-4.73-.71-12.36l3.83,12.05Zm7.91-26.21,7.9,24.88-2.4.16-8.9-28.29Q88.25,49.24,89.93,50.78Zm-9.12,2.39L88.1,76.41l-2.14.2-4.8-15.26Zm-6.6,8.33-3,16.79L69,78.6l5.49-30.94q-.12,6.91-.2,13.87ZM70.34,51.13,66.26,74.45c-.52-.9-1-1.78-1.36-2.64l2.88-16.32Q69.1,53.34,70.34,51.13Zm4.25-8.38-6.2,35c-.59-.81-1.1-1.59-1.55-2.33l4.71-26.52C72.69,46.76,73.71,44.71,74.59,42.74Zm3.43-4q.58,24.35,1.15,38.61l-.85.1q-.65-16-.91-39.39Zm2.56,2.77L91.47,76.13l-2.55.21L80.69,49.85l-.3-8.58Zm4.55,4.7,9.47,29.71-2.32.18-10.4-33.2Zm-18.4,11L64.36,70.62c-.41-1-.8-2-1.15-3.11l1.67-7.46Zm-4.5,6.71L63.56,62l-.91,3.6Zm45.26,1,3.22,10.19-2.43.07-3.93-12.48,3.11,2.16.12.08ZM99,58.55l5.32,16.75-2.54.14L95.43,55.64Q97.16,57.13,99,58.55Zm4.22,3.24,4.27,13.37-2.34.1-5-15.79Zm10.56-40.65A37.7,37.7,0,0,1,132.6,73.09a91.8,91.8,0,0,1-33.2-15.21,113.8,113.8,0,0,1-19-17L80.24,36l-1.18-.53-1.1.94,0,1.75-.62-.76,0-2.78H75.75l0,1-1,.24-.09,5.32a78.8,78.8,0,0,1-7.27,13.24,52.73,52.73,0,0,1-5.61,6.95,38.06,38.06,0,0,1-.4-5.45,37.72,37.72,0,0,1,52.36-34.73ZM99.06,15.66A40.24,40.24,0,0,0,62,71.55,40.22,40.22,0,0,0,127.87,84a3,3,0,0,0,.79-.84,40.22,40.22,0,0,0-29.6-67.47Z" style="fill:#f2f2f2;fill-rule:evenodd"/></svg>