<svg xmlns="http://www.w3.org/2000/svg" viewBox="0 0 200 120"><title>program-providers-ymca</title><path d="M92.57,105c-2.84,0-5.67,0-8.51,0-4.47-.05-5.93-2.48-3.69-6.43,4.41-7.78,9-15.48,13.45-23.21,1.31-2.25,2.56-4.54,3.92-6.76,2.56-4.2,2.38-8.26-.09-12.49C91,44.75,84.5,33.34,78,21.94c-2.72-4.75-1.45-6.84,4.11-6.85,5,0,10,.06,15,0a10.31,10.31,0,0,1,9.81,5.5q10.51,18.2,21,36.38A10.85,10.85,0,0,1,128,68.54c-5,8.65-10.19,17.24-15.25,25.87-1,1.63-1.71,3.39-2.6,5.06a10,10,0,0,1-9.43,5.52C98,105,95.29,105,92.57,105Z" style="fill:#999"/><path d="M133.88,15c5.45,0,10.9,0,16.34,0,4.75,0,6.76,3.41,4.41,7.55q-8,14-16.11,27.93c-2.58,4.39-6.61,4.27-9.18-.19q-7.82-13.54-15.56-27.13c-2.79-4.9-.87-8.1,4.78-8.11,5.11,0,10.22,0,15.32,0Z" style="fill:gray"/><path d="M119.89,93c.25.27.94.41.47.9-.16.17-.78-.1-1.19-.17Z" style="fill:#fff"/><path d="M52.15,64.83H49.24v5.42a6.79,6.79,0,0,0,.16,2,.42.42,0,0,0,.4.22c.76,0,1.46-.4,2.21-.4.94,0,.73,1.11.73,1.73,0,.92-.19,1.24-1.13,1.35a22.68,22.68,0,0,1-2.34.13c-3.13,0-3.48-1.43-3.48-4.26V64.83H45c-.49,0-.65-.35-.65-.78V62.89c0-1,.59-.89,1.4-.89V59.82c0-.84.32-1.19,1.16-1.19h1.21a1.06,1.06,0,0,1,1.08,1.19V62h2.64c1.19,0,.92.81.92,1.81C52.79,64.37,52.82,64.83,52.15,64.83Z" style="fill:#999"/><path d="M65.84,74.91H64.41c-.78,0-1-.51-1-1.21V66.8a6.11,6.11,0,0,0-.19-2.13c-.19-.22-.59-.22-.86-.22A5.88,5.88,0,0,0,59.1,65.7v8c0,.75-.22,1.21-1.05,1.21H56.62c-.73,0-1-.4-1-1.08V57.53c0-.86.35-1.16,1.19-1.16H58a1,1,0,0,1,1.05,1.16v5a8.55,8.55,0,0,1,3.64-.92c2.51,0,4.15,1.24,4.15,3.83V73.7C66.89,74.46,66.68,74.91,65.84,74.91Z" style="fill:#999"/><path d="M79.8,69.55H73.23v.38c0,2,.46,2.7,2.51,2.7A15.07,15.07,0,0,0,79,72.19,3.94,3.94,0,0,1,80,72c.76,0,.78,1.21.78,1.73,0,.76-.22,1-1,1.19a20.56,20.56,0,0,1-4.07.35c-4.85,0-5.88-2.29-5.88-6.74s.86-6.93,5.74-6.93c4.45,0,5.36,2.29,5.36,6.31C80.94,69,81,69.55,79.8,69.55Zm-2.16-2.88c0-1.67-.24-2.37-2.08-2.37-2.21,0-2.35.94-2.35,2.89h4.42Z" style="fill:#999"/><path d="M117.07,96.32l2,3.19,1.85,1c.47.25.17.6,0,.94s-.3.37-.6.21l-1.78-1-4,.08a.64.64,0,0,1-.3,0,.34.34,0,0,1-.1-.49l.25-.47a.47.47,0,0,1,.48-.3l2.73,0-1.48-2.32c-.23-.36,0-.61.19-.94a.32.32,0,0,1,.46-.18A.94.94,0,0,1,117.07,96.32Z" style="fill:gray"/><path d="M125.48,93a.38.38,0,0,1-.57.17l-3.63-1.65.54.58c.59.64,1.27,1.32,1.81,2,.29.35.16.52,0,.88a.49.49,0,0,1-.59.29c-.89-.09-1.78-.25-2.66-.38l-.78-.14,3.39,2.1c.44.27.17.58,0,.93s-.28.39-.56.24l-.06,0-4.78-3.12c-.26-.17-.25-.36-.12-.61l.25-.47a.45.45,0,0,1,.5-.3c.46,0,.93.12,1.38.18l2.58.38-1.75-1.93c-.31-.34-.63-.68-.92-1a.45.45,0,0,1,0-.58l.25-.48c.13-.25.28-.36.57-.24L125.5,92l.06,0C126,92.23,125.63,92.68,125.48,93Z" style="fill:gray"/><path d="M128.39,87.69a10.83,10.83,0,0,1-.48,1c-1.11,2.08-2.35,1.94-4.25.92-1-.53-2.32-1.33-2.2-2.63a4.07,4.07,0,0,1,.52-1.46c.18-.33.36-.65.57-1s.28-.43.54-.29l.28.15c.27.14.4.25.24.55s-.37.6-.54.91a3.32,3.32,0,0,0-.38,1c-.06.74,1.08,1.25,1.62,1.54s1.68,1,2.3.2A3.86,3.86,0,0,0,127,88c.17-.31.29-.64.45-1s.55-.13.88,0S128.49,87.46,128.39,87.69Z" style="fill:gray"/><path d="M131.42,81.84l-.25.47a.43.43,0,0,1-.52.24l-1.28-.2q-.52,1-1.08,2l.83.89c.38.4.15.58-.09,1-.09.16-.19.33-.39.22a1.19,1.19,0,0,1-.23-.21l-4-4.4c-.38-.43-.17-.61.07-1.07a.52.52,0,0,1,.65-.31l6,.83a.42.42,0,0,1,.15,0C131.52,81.5,131.52,81.67,131.42,81.84Zm-5.52,0,1.67,1.78.74-1.38Z" style="fill:gray"/></svg>